<?xml version="1.0" encoding="utf-8"?>
<!-- Generator: Adobe Illustrator 24.3.0, SVG Export Plug-In . SVG Version: 6.00 Build 0)  -->
<svg version="1.1" id="Layer_1" xmlns="http://www.w3.org/2000/svg" xmlns:xlink="http://www.w3.org/1999/xlink" x="0px" y="0px"
	 viewBox="0 0 29 29" style="enable-background:new 0 0 29 29;" xml:space="preserve">
<style type="text/css">
	.st0{fill:#FFFFFF;}
</style>
<g>
	<g>
		<path class="st0" d="M22.97,28.92H6.03c-3.28,0-5.95-2.67-5.95-5.95V6.03c0-3.28,2.67-5.95,5.95-5.95h16.94
			c3.28,0,5.95,2.67,5.95,5.95v16.94C28.92,26.25,26.25,28.92,22.97,28.92z M6.03,2.97c-1.69,0-3.06,1.37-3.06,3.06v16.94
			c0,1.69,1.37,3.06,3.06,3.06h16.94c1.69,0,3.06-1.37,3.06-3.06V6.03c0-1.69-1.37-3.06-3.06-3.06H6.03z"/>
	</g>
	<g>
		<path class="st0" d="M14.5,21.71c-3.97,0-7.21-3.23-7.21-7.21s3.23-7.21,7.21-7.21c3.97,0,7.21,3.23,7.21,7.21
			S18.47,21.71,14.5,21.71z M14.5,10.18c-2.38,0-4.32,1.94-4.32,4.32s1.94,4.32,4.32,4.32s4.32-1.94,4.32-4.32
			S16.88,10.18,14.5,10.18z"/>
	</g>
	<circle class="st0" cx="21.71" cy="7.29" r="1.44"/>
</g>
</svg>
