<?xml version="1.0" encoding="utf-8"?>
<!-- Generator: Adobe Illustrator 24.3.0, SVG Export Plug-In . SVG Version: 6.00 Build 0)  -->
<svg version="1.1" id="Layer_1" xmlns="http://www.w3.org/2000/svg" xmlns:xlink="http://www.w3.org/1999/xlink" x="0px" y="0px"
	 viewBox="0 0 59 55" style="enable-background:new 0 0 59 55;" xml:space="preserve">
<style type="text/css">
	.st0{fill:#FFFFFF;}
</style>
<g>
	<g>
		<rect x="9.33" y="18.15" class="st0" width="8.97" height="22.36"/>
		<path class="st0" d="M49.45,11.28c-0.15-0.84-0.37-1.56-0.58-2.16c-0.29-0.79-0.74-1.79-1.44-2.86c-0.74-1.11-1.52-1.94-2.17-2.52
			C44.45,3,43.12,1.98,41.25,1.22c-2.02-0.82-3.82-0.98-4.96-1v0H9.38v8.97h26.91v0c0.33,0.01,1.85,0.1,3.08,1.35
			c0.24,0.24,1.3,1.38,1.3,3.15c0,1.83-1.13,2.98-1.37,3.21c-1.21,1.18-2.66,1.27-3.01,1.29h-9.01v22.33h9.01v-13.4
			c0.81,0,1.87-0.07,3.06-0.35c1.11-0.26,2.02-0.63,2.72-0.97c0.49-0.24,1.03-0.54,1.6-0.92c0.63-0.42,1.15-0.85,1.59-1.24
			c0.66-0.6,1.48-1.46,2.24-2.63c0.69-1.06,1.13-2.06,1.41-2.86c0.22-0.62,0.43-1.38,0.58-2.26c0.14-0.83,0.18-1.57,0.18-2.2
			C49.67,13.01,49.62,12.19,49.45,11.28z"/>
	</g>
	<g>
		<g>
			<path class="st0" d="M0.76,54.76v-5.87h2.1c0.66,0,1.2,0.19,1.63,0.57c0.44,0.39,0.66,0.89,0.66,1.5c0,0.63-0.22,1.18-0.67,1.62
				c-0.45,0.44-0.99,0.67-1.62,0.67H1.66v1.51H0.76z M1.66,49.78v2.56h1.19c0.39,0,0.71-0.14,0.98-0.41
				c0.27-0.27,0.41-0.6,0.41-0.98h0c0-0.34-0.12-0.62-0.35-0.82c-0.26-0.23-0.61-0.34-1.04-0.34v0H1.66z"/>
			<path class="st0" d="M11.3,54.76v-5.88h2.62v0c0.62,0,1.13,0.18,1.53,0.53c0.42,0.37,0.63,0.84,0.63,1.41h0
				c0,0.6-0.21,1.11-0.63,1.53c-0.23,0.23-0.49,0.39-0.79,0.5l1.56,1.9h-1.16l-1.46-1.78H12.2v1.78H11.3z M12.2,49.78v2.3h1.72
				c0.34,0,0.64-0.12,0.88-0.37c0.24-0.25,0.37-0.54,0.37-0.89c0-0.31-0.1-0.55-0.31-0.73c-0.23-0.21-0.55-0.31-0.94-0.31H12.2z"/>
			<path class="st0" d="M27.01,49.42c0.45,0.3,0.79,0.71,1.01,1.23c0.16,0.37,0.24,0.77,0.24,1.18c0,0.41-0.08,0.8-0.24,1.18
				c-0.22,0.52-0.55,0.93-1.01,1.23c-0.5,0.34-1.09,0.5-1.79,0.5c-0.69,0-1.29-0.17-1.79-0.5c-0.45-0.3-0.79-0.72-1.01-1.23
				c-0.16-0.37-0.24-0.77-0.24-1.18c0-0.41,0.08-0.8,0.24-1.18c0.22-0.52,0.55-0.93,1.01-1.23c0.5-0.34,1.1-0.5,1.79-0.5
				C25.92,48.92,26.51,49.09,27.01,49.42z M26.48,50.12c-0.35-0.23-0.77-0.34-1.25-0.34c-0.49,0-0.91,0.11-1.26,0.34
				c-0.32,0.21-0.55,0.49-0.7,0.85c-0.11,0.27-0.17,0.55-0.17,0.86c0,0.3,0.06,0.59,0.17,0.85c0.15,0.36,0.39,0.64,0.7,0.85
				c0.35,0.23,0.77,0.35,1.26,0.35c0.49,0,0.9-0.12,1.25-0.35c0.32-0.21,0.55-0.49,0.7-0.85c0.11-0.27,0.17-0.55,0.17-0.85
				c0-0.3-0.06-0.59-0.17-0.86C27.03,50.62,26.8,50.33,26.48,50.12z"/>
			<path class="st0" d="M38.81,48.86h0.95l-2.83,5.92l-2.83-5.92h0.95l1.64,3.4c0.08,0.16,0.16,0.36,0.24,0.6
				c0.08-0.24,0.16-0.44,0.24-0.6L38.81,48.86z"/>
		</g>
		<g>
			<path class="st0" d="M47.94,48.88v5.87h-0.9v-5.87H47.94z"/>
			<path class="st0" d="M56.51,49.78v4.97h-0.9v-4.97h-1.73v-0.9h4.36v0.9H56.51z"/>
		</g>
	</g>
</g>
</svg>
